<svg height="512pt" viewBox="0 0 512 512" width="512pt" xmlns="http://www.w3.org/2000/svg"><path d="m512 256c0 141.386719-114.613281 256-256 256s-256-114.613281-256-256 114.613281-256 256-256 256 114.613281 256 256zm0 0" fill="#ff8b2a"/><path d="m503.089844 323.117188-198.753906-198.757813-192.875 264.296875 122.375 122.378906c7.308593.625 14.695312.964844 22.164062.964844 118.15625 0 217.601562-80.058594 247.089844-188.882812zm0 0" fill="#ff6e2e"/><path d="m411.882812 306.644531-97.253906-168.746093c-12.054687-20.910157-34.519531-33.898438-58.628906-33.898438l-32.203125 152 32.203125 152h97.253906c37.289063 0 67.628906-30.339844 67.628906-67.628906 0-11.847656-3.113281-23.507813-9-33.726563zm0 0" fill="#462300"/><path d="m197.371094 137.898438-97.253906 168.746093c-5.886719 10.214844-9 21.878907-9 33.726563 0 37.292968 30.339843 67.628906 67.628906 67.628906h97.253906v-304c-24.109375 0-46.574219 12.988281-58.628906 33.898438zm0 0" fill="#742f0d"/><path d="m378.398438 325.941406-97.253907-168.746094c-5.25-9.109374-14.652343-14.550781-25.144531-14.550781l-32.203125 113.355469 32.203125 113.355469h97.253906c15.980469 0 28.984375-13 28.984375-28.984375 0-5.15625-1.292969-10.011719-3.839843-14.429688zm0 0" fill="#ff8b2a"/><path d="m230.855469 157.195312-97.253907 168.75c-2.546874 4.417969-3.839843 9.273438-3.839843 14.429688 0 15.980469 13.003906 28.980469 28.984375 28.980469h97.253906v-226.710938c-10.492188 0-19.894531 5.441407-25.144531 14.550781zm0 0" fill="#ffa725"/><path d="m361.660156 335.589844-97.253906-168.746094c-1.8125-3.144531-4.800781-4.878906-8.40625-4.878906l-32.203125 94.035156 32.203125 94.035156h97.253906c5.328125 0 9.660156-4.335937 9.660156-9.664062 0-1.773438-.398437-3.292969-1.253906-4.78125zm0 0" fill="#ffa725"/><path d="m247.59375 166.84375-97.253906 168.746094c-.855469 1.488281-1.253906 3.007812-1.253906 4.78125 0 5.328125 4.332031 9.664062 9.660156 9.664062h97.253906v-188.070312c-3.605469 0-6.589844 1.734375-8.40625 4.878906zm0 0" fill="#ffc320"/><g fill="#462300"><path d="m256 269.335938-19.320312 40.347656 19.320312 40.351562h46.507812zm0 0"/><path d="m281.878906 236.855469 9.648438 16.738281-16.742188 9.648438-9.648437-16.742188zm0 0"/><path d="m320.46875 303.8125 9.648438 16.742188-16.742188 9.648437-9.644531-16.742187zm0 0"/><path d="m301.175781 270.335938 9.644531 16.738281-16.738281 9.648437-9.648437-16.742187zm0 0"/></g><path d="m188.523438 269.335938-38.183594 66.253906c-.855469 1.488281-1.253906 3.007812-1.253906 4.785156 0 5.324219 4.332031 9.660156 9.660156 9.660156h97.253906v-80.695312zm0 0" fill="#742f0d"/><path d="m256 269.335938-33.738281-58.535157-33.738281 58.535157 33.738281 33.738281zm0 0" fill="#a33b1a"/></svg>