<svg height="512pt" viewBox="0 0 512 512" width="512pt" xmlns="http://www.w3.org/2000/svg"><path d="m512 256c0 141.386719-114.613281 256-256 256s-256-114.613281-256-256 114.613281-256 256-256 256 114.613281 256 256zm0 0" fill="#ff8b2a"/><path d="m261.09375 511.9375c125.195312-2.445312 228.359375-94.761719 247.648438-215.105469l-146.082032-146.085937-36.09375-14.09375-11.558594-11.554688-202.09375 127.738282 71.378907 71.398437-23.136719 87.765625zm0 0" fill="#ff5233"/><path d="m179.4375 412h-18.28125v-105.117188l24.375 18.28125v-68.554687h18.28125v105.117187l-24.375-18.28125zm0 0" fill="#ffc320"/><path d="m240.375 412h-18.28125v-105.117188l24.375 18.28125v-68.554687h18.28125v105.117187l-24.375-18.28125zm0 0" fill="#ffa725"/><path d="m307.40625 256.609375v68.554687l-24.375-18.28125v105.117188h18.28125v-68.554688l24.375 18.28125v-105.117187zm0 0" fill="#ff8b2a"/><path d="m398.101562 188.230469c-6.339843-6.53125-14.328124-10.945313-23.046874-12.835938-3.585938-21.992187-22.71875-38.832031-45.710938-38.832031-1.617188 0-3.230469.082031-4.835938.25-15.308593-22.859375-41.140624-36.8125-68.898437-36.8125l-30.46875 82.875 30.46875 82.875h109.6875c25.199219 0 45.703125-20.503906 45.703125-45.703125 0-11.945313-4.578125-23.242187-12.898438-31.816406zm0 0" fill="#093f61"/><path d="m186.710938 136.8125c-1.605469-.164062-3.21875-.25-4.835938-.25-22.898438 0-41.972656 16.707031-45.664062 38.574219-21.160157 3.992187-37.210938 22.609375-37.210938 44.910156 0 25.199219 20.503906 45.703125 45.703125 45.703125h110.90625v-165.75c-27.757813 0-53.589844 13.953125-68.898437 36.8125zm0 0" fill="#186c95"/></svg>