<svg height="512pt" viewBox="0 0 512 512" width="512pt" xmlns="http://www.w3.org/2000/svg"><path d="m512 256c0 141.386719-114.613281 256-256 256s-256-114.613281-256-256 114.613281-256 256-256 256 114.613281 256 256zm0 0" fill="#97e4fd"/><path d="m503.171875 322.820312-181.023437-181.023437-29.644532-4.429687-15.324218-15.292969-20.410157 3.832031-3.847656-3.832031-21.179687 26.328125-6.625-6.605469-23.785157 7.367187-18.105469 25.4375 32.34375 32 2.730469 9.542969-8.074219 2.289063-27-27.660156-16.171874 16.171874 27 26.675782-76.054688 160.378906 117.152344 117.152344c6.875.554687 13.828125.847656 20.847656.847656 118.265625 0 217.78125-80.203125 247.171875-189.179688zm0 0" fill="#4cbeff"/><path d="m268.128906 118c6.699219 0 12.128906 5.429688 12.128906 12.128906v28.300782l16.171876 71.15625h-56.601563l16.171875-99.457032c0-6.699218 5.429688-12.128906 12.128906-12.128906zm0 0" fill="#ff5233"/><path d="m243.871094 118c-6.699219 0-12.128906 5.429688-12.128906 12.128906v28.300782l-16.171876 71.15625h40.429688v-99.457032c0-6.699218-5.429688-12.128906-12.128906-12.128906zm0 0" fill="#ff6e2e"/><path d="m231.742188 234.976562h-16.171876v-76.546874c0-4.457032-3.628906-8.085938-8.085937-8.085938-4.460937 0-8.085937 3.628906-8.085937 8.085938v16.171874h-16.171876v-16.171874c0-13.375 10.882813-24.257813 24.257813-24.257813s24.257813 10.882813 24.257813 24.257813zm0 0" fill="#ff5233"/><path d="m296.429688 234.976562h-16.171876v-76.546874c0-13.375 10.882813-24.257813 24.257813-24.257813s24.257813 10.882813 24.257813 24.257813v16.171874h-16.171876v-16.171874c0-4.457032-3.625-8.085938-8.085937-8.085938-4.457031 0-8.085937 3.628906-8.085937 8.085938zm0 0" fill="#ff364e"/><path d="m319.746094 235.316406h-90.699219l26.953125 102.082032 138-32.34375zm0 0" fill="#462300"/><path d="m192.253906 235.316406-74.253906 69.738282 138 32.34375v-72.773438zm0 0" fill="#742f0d"/><path d="m394 305.054688h-49.054688l-126.679687 56.601562 37.734375 32.34375h138zm0 0" fill="#742f0d"/><path d="m118 305.054688v88.945312h138l-88.945312-88.945312zm0 0" fill="#a33b1a"/><path d="m239.828125 337.398438 16.171875 56.601562c49.046875 0 88.945312-39.902344 88.945312-88.945312h-32.34375zm0 0" fill="#ff364e"/><path d="m167.054688 305.054688c0 49.042968 39.898437 88.945312 88.945312 88.945312v-61.992188l-56.601562-26.953124zm0 0" fill="#ff5233"/><path d="m256 305.054688-21.5625 24.257812 21.5625 32.34375c31.210938 0 56.601562-25.390625 56.601562-56.601562zm0 0" fill="#ff5233"/><path d="m199.398438 305.054688c0 31.210937 25.390624 56.601562 56.601562 56.601562v-56.601562zm0 0" fill="#ff6e2e"/><path d="m328.773438 190.773438h16.171874v16.171874h-16.171874zm0 0" fill="#ff364e"/><path d="m167.054688 190.773438h16.171874v16.171874h-16.171874zm0 0" fill="#ff5233"/><path d="m319.746094 235.316406-23.316406-21.902344h-40.429688l-26.953125 25.605469 26.953125 90.292969c13.375 0 24.257812-10.882812 24.257812-24.257812v-44.003907c15.519532-4.6875 29.167969-13.742187 39.488282-25.734375zm0 0" fill="#ff6e2e"/><path d="m215.570312 213.414062-23.316406 21.902344c10.320313 11.992188 23.964844 21.046875 39.488282 25.734375v44.003907c0 13.375 10.882812 24.257812 24.257812 24.257812v-115.898438zm0 0" fill="#ff8b2a"/></svg>