<svg height="512pt" viewBox="0 0 512 512" width="512pt" xmlns="http://www.w3.org/2000/svg"><path d="m512 256c0 141.386719-114.613281 256-256 256s-256-114.613281-256-256 114.613281-256 256-256 256 114.613281 256 256zm0 0" fill="#ffd567"/><path d="m511.347656 274.1875-183.9375-183.9375-14.660156 26.5-56.75-56.75-114.773438 344.4375 107.449219 107.453125c2.433594.066406 4.875.109375 7.324219.109375 135.269531 0 246.019531-104.917969 255.347656-237.8125zm0 0" fill="#ffa725"/><path d="m395.957031 207.328125c37.5 63.691406 27.148438 144.757813-25.179687 197.109375-3.375 3.378906-6.875 6.585938-10.484375 9.625h-185.617188l81.324219-354.0625 45.464844 45.476562 25.945312-15.226562zm0 0" fill="#ff5233"/><path d="m256 60v354.066406h-104.289062c-3.613282-3.039062-7.109376-6.25-10.484376-9.628906-52.332031-52.34375-62.683593-133.410156-25.175781-197.132812l68.539063-117.054688 25.945312 15.226562zm0 0" fill="#ff8b2a"/><path d="m356.375 230.636719c26.871094 45.652343 19.445312 103.777343-18.09375 141.324219-21.972656 21.988281-51.195312 34.101562-82.28125 34.101562l-68.90625-150.0625 68.90625-131.019531 38.074219 38.089843 16.929687-9.929687zm0 0" fill="#ffc320"/><path d="m256 124.980469v281.082031c-31.085938 0-60.308594-12.113281-82.28125-34.101562-37.539062-37.546876-44.964844-95.671876-18.078125-141.347657l45.355469-77.476562 16.929687 9.929687zm0 0" fill="#ffd567"/><path d="m290.453125 331.195312-22.96875-11.484374 22.96875-11.484376c12.664063 0 22.96875-10.304687 22.96875-22.96875v-48.234374h22.96875v48.234374c0 25.328126-20.609375 45.9375-45.9375 45.9375zm0 0" fill="#a33b1a"/><path d="m221.546875 331.195312 22.96875-11.484374-22.96875-11.484376c-12.664063 0-22.96875-10.304687-22.96875-22.96875v-48.234374h-22.96875v48.234374c0 25.328126 20.609375 45.9375 45.9375 45.9375zm0 0" fill="#d14626"/><path d="m290.453125 210.222656v197.585938h-57.421875l22.96875-232.039063c18.996094 0 34.453125 15.457031 34.453125 34.453125zm0 0" fill="#d14626"/><path d="m256 175.769531v232.039063h-34.453125v-197.585938c0-18.996094 15.457031-34.453125 34.453125-34.453125zm0 0" fill="#ff6e2e"/><path d="m360.292969 414.0625c-29.175781 24.5625-65.703125 37.9375-104.292969 37.9375l-30.625-35.984375 30.625-36.75c39.140625 0 75.253906 12.953125 104.292969 34.796875zm0 0" fill="#742f0d"/><path d="m256 379.265625v72.734375c-38.585938 0-75.113281-13.375-104.292969-37.9375 29.039063-21.84375 65.152344-34.796875 104.292969-34.796875zm0 0" fill="#a33b1a"/></svg>